<?xml version="1.0" standalone="no"?><!DOCTYPE svg PUBLIC "-//W3C//DTD SVG 1.1//EN" "http://www.w3.org/Graphics/SVG/1.1/DTD/svg11.dtd"><svg t="1720075801053" class="icon" viewBox="0 0 1024 1024" version="1.1" xmlns="http://www.w3.org/2000/svg" p-id="1381" xmlns:xlink="http://www.w3.org/1999/xlink" width="200" height="200"><path d="M512 511.999555m-498.303135 0a498.303135 498.303135 0 1 0 996.60627 0 498.303135 498.303135 0 1 0-996.60627 0Z" fill="#8A532D" p-id="1382"></path><path d="M512 1023.99911A512.136519 512.136519 0 0 1 312.703399 40.240081a512.136519 512.136519 0 0 1 398.565809 943.518948 508.808289 508.808289 0 0 1-199.269208 40.240081z m0-996.606271a484.606716 484.606716 0 0 0-342.67072 827.26374A484.606716 484.606716 0 0 0 854.657024 169.328835 481.442843 481.442843 0 0 0 512 27.392839z" fill="" p-id="1383"></path><path d="M36.172689 485.373715c13.600545 221.717639 197.721512 397.333131 422.876953 397.333131C693.039273 882.720542 882.720987 693.038828 882.720987 459.035501c0-225.141744-175.615491-409.276408-397.33313-422.876953q13.888169-0.808089 27.981785-0.808089c263.98479 0 478.005042 214.006555 478.005042 478.005041s-214.006555 478.005042-478.005042 478.005042-478.005042-214.006555-478.005042-478.005042q0-14.093616 0.808089-27.981785z" fill="#694024" p-id="1384"></path><path d="M616.270842 288.583559m-96.135169 0a96.135169 96.135169 0 1 0 192.270338 0 96.135169 96.135169 0 1 0-192.270338 0Z" fill="#FFFFFF" p-id="1385"></path><path d="M780.107412 444.298153m-51.457448 0a51.457448 51.457448 0 1 0 102.914896 0 51.457448 51.457448 0 1 0-102.914896 0Z" fill="#FFFFFF" p-id="1386"></path><path d="M889.78834 367.118829m-25.721876 0a25.721876 25.721876 0 1 0 51.443752 0 25.721876 25.721876 0 1 0-51.443752 0Z" fill="#FFFFFF" p-id="1387"></path><path d="M162.645427 731.36141m-21.667736 0a21.667736 21.667736 0 1 0 43.335472 0 21.667736 21.667736 0 1 0-43.335472 0Z" fill="#FFFFFF" p-id="1388"></path><path d="M131.020394 693.189489A16.764418 16.764418 0 0 1 107.667999 688.929902a301.773212 301.773212 0 0 1-53.347554-171.931154 309.717135 309.717135 0 0 1 4.615693-53.416036 16.79181 16.79181 0 1 1 33.076854 5.820978 277.48946 277.48946 0 0 0-4.108926 47.553969A268.203287 268.203287 0 0 0 135.293677 669.754915a16.846596 16.846596 0 0 1-4.273283 23.434574z" fill="#FFFFFF" p-id="1389"></path></svg>