<?xml version="1.0" standalone="no"?><!DOCTYPE svg PUBLIC "-//W3C//DTD SVG 1.1//EN" "http://www.w3.org/Graphics/SVG/1.1/DTD/svg11.dtd"><svg t="1720075809801" class="icon" viewBox="0 0 1024 1024" version="1.1" xmlns="http://www.w3.org/2000/svg" p-id="1552" xmlns:xlink="http://www.w3.org/1999/xlink" width="200" height="200"><path d="M947.082198 470.350214c2.106027 4.212054 2.106027 8.436497 4.224443 10.542525-1.053014 1.053014-14.766968 30.586949-45.353916 44.288514-2.106027 24.256479-5.277457 49.553582-9.489511 72.769435 24.256479 23.203465 26.374894 58.002468 26.374894 59.055482a13.540516 13.540516 0 0 1-4.224443 10.542525c-1.053014 0-20.044424 16.872995-46.40693 21.060272-8.436497 22.150451-16.872995 43.2355-27.427908 64.332938 17.926008 33.745989 6.33047 69.598006 5.277457 71.704034-2.106027 4.212054-4.224443 7.433037-8.436498 8.436497-1.053014 1.053014-23.203465 8.436497-48.525345 3.159041-12.66094 15.819981-25.309492 30.586949-39.023446 45.341528 8.436497 36.90503-12.66094 67.491979-13.713954 68.544992a11.075226 11.075226 0 0 1-9.489511 5.277457 99.354932 99.354932 0 0 1-49.553582-10.542525c-11.607927 8.436497-23.203465 15.819981-34.811392 23.203465-13.713954 29.521547-42.194875 43.2355-43.247889 44.288514-4.224443 2.106027-8.436497 2.106027-11.607926 0-1.053014-1.053014-7.433037-3.159041-14.766968-9.489511-31.639962 13.713954-54.843427 18.979022-61.173897 21.060273h-6.33047c-6.33047-2.106027-29.533935-7.433037-61.173897-21.060273-7.433037 6.33047-13.713954 9.489511-14.766968 9.489511-4.224443 2.106027-8.436497 2.106027-11.607926 0-1.053014 0-29.533935-14.766968-43.247889-44.288514-11.607927-7.433037-23.203465-14.766968-34.811392-23.203465a99.354932 99.354932 0 0 1-49.553582 10.542525 12.58661 12.58661 0 0 1-9.489511-5.277457c-1.053014-2.106027-21.060272-32.692976-13.713954-68.544992A401.631784 401.631784 0 0 1 231.962064 836.229089c-25.309492 5.277457-47.459943-3.159041-48.525345-3.159041-4.224443-2.106027-7.433037-4.212054-8.436498-8.436498-1.065402-2.031697-12.66094-37.958044 5.265069-71.666868a436.752885 436.752885 0 0 1-27.427908-64.332938c-27.427908-4.212054-45.353916-20.032036-46.40693-21.060273a13.540516 13.540516 0 0 1-4.224443-10.542524c0-1.053014 2.106027-34.799003 26.374894-59.055482q-6.33047-34.799003-9.489511-72.769435C88.504444 512.532701 74.79049 481.920976 73.737476 480.892739c-2.106027-4.212054-2.106027-8.436497 0-11.595538 0-1.053014 15.819981-31.639962 47.459944-43.235501a401.458346 401.458346 0 0 1 12.66094-53.778025c-24.256479-26.362506-23.203465-61.161509-23.203465-63.267536a12.58661 12.58661 0 0 1 5.277456-9.489511c1.053014-1.053014 29.533935-21.060272 63.279925-16.872995a295.698614 295.698614 0 0 1 33.758378-40.07646c-5.277457-25.309492 3.159041-48.512957 3.159041-49.553582 2.106027-4.212054 4.224443-7.433037 8.436497-8.436497 1.053014 0 32.692976-10.542525 63.279925 2.106027 51.684386-29.521547 112.858284-47.459943 178.256623-53.778025V44.300903a44.300903 44.300903 0 0 1 88.601805 0v89.64243c65.39834 6.33047 126.572237 24.256479 178.256624 53.778025 30.586949-13.713954 62.226911-2.106027 63.279924-2.106027 4.224443 2.106027 7.433037 4.212054 8.436498 8.436497 1.053014 1.053014 8.436497 23.203465 3.159041 49.553582 12.66094 12.648552 23.203465 26.362506 33.758378 40.07646 34.811392-4.212054 62.226911 15.819981 63.279924 16.872995a11.075226 11.075226 0 0 1 5.277457 9.489511c0 1.053014 1.053014 36.90503-23.203465 63.267536 6.33047 16.872995 9.489511 34.799003 12.66094 53.778025 31.652351 11.620315 46.419318 42.194875 47.472332 43.260277z" fill="#FFD0D9" p-id="1553"></path><path d="M928.710207 451.941058c2.031697 3.790849 2.031697 7.56931 4.051006 9.464735-1.015848 0.941518-14.184713 27.440296-43.557599 39.741972-2.031697 21.766411-5.066854 44.47434-9.117859 65.286845 23.302572 20.812505 25.321881 52.031261 25.32188 52.985168a11.744199 11.744199 0 0 1-4.051005 9.464734c-1.015848 0-19.251567 15.138619-44.598224 18.929468-8.102011 19.821433-16.204021 38.800455-26.337729 57.717535 17.21987 30.277239 6.082702 62.449902 5.066854 64.345327-2.031697 3.790849-4.051005 6.627792-8.102011 7.56931-1.015848 0.941518-22.299112 7.56931-46.592756 2.836942-12.153016 14.197101-24.306032 27.440296-37.474896 40.683491 8.102011 33.114181-12.153016 60.554477-13.168865 61.508384a10.815069 10.815069 0 0 1-9.117859 4.732367c-1.015848 0-24.306032 1.895425-47.608604-9.464734-11.149556 7.56931-22.299112 14.197101-33.448668 20.812505-13.168864 26.498778-40.522442 38.800455-41.525902 39.741973-4.051005 1.895425-8.102011 1.895425-11.149556 0-1.015848-0.941518-7.086162-2.836943-14.184713-8.510828-30.388734 12.301677-52.675458 17.034044-58.745772 18.929468h-6.02076c-6.082702-1.895425-28.357037-6.627792-58.745772-18.929468-7.086162 5.673885-13.168864 8.510828-14.184713 8.510828-4.051005 1.895425-8.102011 1.895425-11.149556 0-1.015848 0-28.357037-13.243195-41.525901-39.741973-11.149556-6.627792-22.299112-13.243195-33.448668-20.812505-23.302572 11.360159-46.592756 9.464734-47.608605 9.464734a12.388396 12.388396 0 0 1-9.117859-4.732367c-1.015848-1.895425-20.255027-29.335721-13.168864-61.508384a368.480437 368.480437 0 0 1-37.474897-40.683491c-24.306032 4.732367-45.576907-2.836943-46.592755-2.836942-4.051005-1.895425-7.086162-3.790849-8.102011-7.56931-1.015848-1.895425-12.153016-34.068088 5.066854-64.345327a378.601757 378.601757 0 0 1-26.337729-57.717535c-26.337729-3.790849-43.557599-17.975562-44.598224-18.929468a11.744199 11.744199 0 0 1-4.001452-9.452346c0-0.941518 2.031697-31.231145 25.32188-52.985168a638.931501 638.931501 0 0 1-9.117859-65.286844c-29.372886-11.360159-42.54175-38.800455-43.557598-39.741973-2.031697-3.790849-2.031697-7.56931 0-10.406252 0-0.941518 15.188173-28.381814 45.576907-38.800455a340.50744 340.50744 0 0 1 12.153016-48.314743c-23.302572-23.661836-22.299112-54.880592-22.299112-56.776017a11.149556 11.149556 0 0 1 5.066854-8.510827c1.015848-0.941518 28.357037-18.929468 60.777468-15.13862a270.674055 270.674055 0 0 1 32.408043-35.926347c-5.066854-22.707929 3.035157-43.532822 3.035157-44.47434 2.031697-3.790849 4.051005-6.627792 8.102011-7.56931 1.015848 0 31.404583-9.464734 60.777468 1.895425 49.627913-26.498778 108.386073-42.578916 171.18285-48.314743V69.659948c0-21.766411 19.251567-39.741973 42.54175-39.741973s42.54175 17.975562 42.541751 39.741973v80.425464c62.796777 5.673885 121.554937 21.766411 171.18285 48.314743 29.372886-12.301677 59.76162-1.895425 60.777468-1.895425 4.051005 1.895425 7.086162 3.790849 8.102011 7.56931 1.015848 0.941518 8.102011 20.812505 3.035157 44.47434 12.153016 11.360159 22.299112 23.661836 32.408042 35.926347 33.448668-3.790849 59.76162 14.197101 60.777469 15.13862a9.811609 9.811609 0 0 1 5.066854 8.510827c0 0.941518 1.015848 33.114181-22.299112 56.776017 6.082702 15.138619 9.117859 31.231145 12.153016 48.314743 30.450676 10.34431 44.623001 37.735053 45.638849 38.726124z" fill="#FF9EBA" p-id="1554"></path><path d="M564.726757 677.038206c1.053014-7.433037-3.159041-13.713954-10.542524-14.766968s-13.713954 3.159041-14.766968 10.542525c-3.159041 20.032036-20.044424 33.745989-28.49331 39.023446-8.436497-5.277457-24.256479-18.979022-28.493309-39.023446-1.053014-7.433037-8.436497-11.595538-14.766968-10.542525-7.433037 1.053014-11.607927 8.436497-10.542525 14.766968 7.433037 42.120545 46.40693 61.161509 48.525346 62.214522a11.471654 11.471654 0 0 0 5.277456 1.053014c1.053014 0 4.224443 0 5.277457-1.053014 2.118416-1.053014 41.141862-20.032036 48.525345-62.214522zM766.447002 412.47163c-7.433037 1.053014-11.607927 8.436497-10.542524 14.766968a12.524668 12.524668 0 0 0 12.66094 10.542524h2.106027c42.194875-7.433037 61.173897-46.394541 62.226911-48.512957 2.106027-3.159041 2.106027-7.433037 0-11.595538-1.053014-2.106027-20.044424-41.129473-62.226911-48.512957-7.433037-1.053014-13.713954 3.159041-14.766967 10.542525s3.159041 13.713954 10.542524 14.766967c20.044424 3.159041 33.758378 20.032036 39.023446 28.49331-5.277457 9.477123-18.979022 25.284715-39.023446 29.509158zM827.658065 491.038835a11.000895 11.000895 0 0 0-2.799778 15.869534c10.26998 14.928017 8.399332 33.597329 7.433038 41.996661-9.34085 1.870648-27.068644 3.716519-42.00905-7.433037-5.599555-3.716519-12.140628-2.799777-15.869535 2.799777s-2.799777 12.128239 2.799778 15.869535c13.998887 10.26998 29.868422 13.069757 42.009049 13.069757a111.755716 111.755716 0 0 0 27.068645-3.716518c3.716519-0.92913 5.599555-3.716519 7.433037-7.433038 0.92913-1.870648 13.069757-38.267754-8.399332-69.065305-5.525224-3.815626-12.066297-4.757144-17.665852-1.957366zM683.159819 778.263786c-6.33047 2.106027-10.542525 10.542525-7.433038 16.872994 7.433037 20.032036 0 39.023446-4.224442 48.512957-10.542525-1.053014-30.586949-4.212054-44.300903-20.032035-4.224443-5.277457-12.66094-6.33047-18.99141-2.106027a13.552905 13.552905 0 0 0-2.106028 18.979022c22.150451 27.415519 55.896441 29.521547 68.557381 29.521546h4.224443a11.075226 11.075226 0 0 0 9.489511-5.277456c1.053014-1.053014 25.309492-37.958044 10.542525-78.046892-0.991072-7.371095-8.374555-10.530136-15.758039-8.424109z" fill="#E76487" p-id="1555"></path><path d="M775.812629 650.477486c-6.33047 2.106027-10.542525 10.542525-7.433037 16.872994 7.433037 20.032036 0 39.023446-4.224443 48.512957-10.542525-1.053014-30.586949-4.212054-44.300903-20.032035-4.224443-5.277457-12.66094-6.33047-18.99141-2.106028a13.552905 13.552905 0 0 0-2.106027 18.979022c22.150451 27.415519 55.908829 29.521547 68.557381 29.521547h4.224443a11.075226 11.075226 0 0 0 9.489511-5.277456c1.053014-1.053014 25.309492-37.958044 10.542524-78.046892-1.040625-7.371095-8.424109-10.542525-15.758039-8.424109z" fill="#E76487" p-id="1556"></path><path d="M576.780666 246.863558c16.872995-11.595538 37.970432-9.489511 47.459944-8.436497 2.106027 10.542525 4.224443 30.586949-8.436498 47.459943-4.224443 6.33047-3.159041 13.713954 3.159041 17.926009 2.106027 2.106027 5.277457 2.106027 7.433037 2.106027a12.983039 12.983039 0 0 0 10.542525-5.277457c24.256479-34.799003 10.542525-75.928476 9.489511-78.046892-1.053014-4.212054-4.224443-6.33047-8.436497-8.436497-2.106027-1.053014-43.247889-14.766968-78.046892 9.489511a12.388396 12.388396 0 0 0-3.208595 17.938397c6.33047 8.448886 13.713954 9.501899 20.044424 5.277456z" fill="#E76487" p-id="1557"></path><path d="M435.255635 268.617581c-16.872995-11.595538-37.970432-9.489511-47.459943-8.436497-2.106027 10.542525-4.224443 30.586949 8.436497 47.459943 4.224443 6.33047 3.159041 13.713954-3.159041 17.926008-2.106027 2.106027-5.277457 2.106027-7.433037 2.106027a12.983039 12.983039 0 0 1-10.542525-5.277456c-24.256479-34.799003-10.542525-75.928476-9.489511-78.046892 1.053014-4.212054 4.224443-6.33047 8.436498-8.436497 2.106027-1.053014 43.247889-14.766968 78.046892 9.489511a12.388396 12.388396 0 0 1 3.159041 17.926008c-6.280917 8.461274-13.6644 9.514288-19.994871 5.289845zM285.467545 429.034915c-16.872995-11.595538-37.970432-9.489511-47.459944-8.436497-2.106027 10.542525-4.224443 30.586949 8.436498 47.459943 4.224443 6.33047 3.159041 13.713954-3.159041 17.926008-2.106027 2.106027-5.277457 2.106027-7.433038 2.106028a12.983039 12.983039 0 0 1-10.542524-5.277457c-24.256479-34.799003-10.542525-75.928476-9.489511-78.046892 1.053014-4.212054 4.224443-6.33047 8.436497-8.436497 2.106027-1.053014 43.247889-14.766968 78.046892 9.489511a12.388396 12.388396 0 0 1 3.159041 17.926008c-6.280917 8.448886-13.6644 9.514288-19.99487 5.289845zM329.43396 769.765346c-13.837838 15.101454-14.680249 36.285611-14.965181 45.837064 10.146096 3.55547 29.732149 8.436497 48.166082-1.746764 6.850783-3.295313 14.011275-1.23884 17.343753 5.624332 1.796317 2.378572 1.350335 5.512836 1.065402 7.606475a12.983039 12.983039 0 0 1-6.689733 9.712502c-37.83416 19.177236-76.659392-0.123884-78.60437-1.461831-4.026229-1.635268-5.673885-5.054465-7.185269-9.526676-0.755692-2.229911-8.597547-44.883157 20.267415-75.97803a12.388396 12.388396 0 0 1 18.198553-0.644197c7.445426 7.445426 7.457814 14.90324 2.403348 20.577125zM245.007045 579.442425c-13.837838 15.101454-14.680249 36.285611-14.965182 45.837064 10.146096 3.55547 29.732149 8.436497 48.166082-1.746764 6.850783-3.295313 14.011275-1.23884 17.343754 5.624332 1.796317 2.378572 1.350335 5.512836 1.065402 7.606475a12.983039 12.983039 0 0 1-6.689734 9.712502c-37.83416 19.177236-76.659392-0.123884-78.60437-1.461831-4.026229-1.635268-5.673885-5.054465-7.185269-9.526676-0.755692-2.229911-8.597547-44.883157 20.267415-75.97803a12.388396 12.388396 0 0 1 18.198553-0.644197c7.445426 7.433037 7.457814 14.90324 2.403349 20.577125z" fill="#E76487" p-id="1558"></path><path d="M947.60251 470.350214c-1.053014-1.053014-15.819981-31.639962-47.459943-43.2355-3.159041-18.979022-6.33047-36.90503-12.66094-53.778025 24.256479-26.362506 23.203465-62.214522 23.203465-63.267537a11.075226 11.075226 0 0 0-5.277457-9.489511c-1.053014-1.053014-28.49331-21.060272-63.279924-16.872994-10.542525-13.713954-21.060272-27.415519-33.758378-40.07646 5.277457-26.362506-2.106027-48.512957-3.159041-49.553582-1.053014-4.212054-4.224443-6.33047-8.436498-8.436498-1.053014 0-32.692976-11.595538-63.279924 2.106028-51.684386-29.521547-112.858284-47.459943-178.256624-53.778025V44.300903a44.300903 44.300903 0 0 0-88.601805 0v88.577028c-65.39834 6.33047-126.572237 24.256479-178.256623 53.778025-30.586949-12.648552-62.226911-2.106027-63.279925-2.106027-4.224443 1.053014-6.33047 4.212054-8.436497 8.436497 0 1.053014-8.436497 24.256479-3.159041 49.553582a295.698614 295.698614 0 0 0-33.758378 40.07646c-33.758378-4.212054-62.226911 15.819981-63.279925 16.872995a12.58661 12.58661 0 0 0-5.277456 9.489511c0 2.106027-1.053014 36.90503 23.203465 63.267536A401.458346 401.458346 0 0 0 121.705344 426.049312C90.07777 437.657238 74.257789 468.29374 74.257789 469.284812c-2.106027 3.159041-2.106027 7.433037 0 11.595538 1.053014 1.053014 14.766968 31.639962 45.353916 44.288514q3.159041 37.958044 9.489511 72.769436c-24.256479 24.256479-26.374894 58.002468-26.374894 59.055482a13.540516 13.540516 0 0 0 4.224443 10.542524c1.053014 1.053014 18.99141 16.872995 46.406929 21.060273a436.765274 436.765274 0 0 0 27.440297 64.370103C162.859594 786.675506 174.46752 822.601853 175.520534 824.670715c1.053014 4.212054 4.224443 6.33047 8.436497 8.436498 1.053014 0 23.203465 8.436497 48.525346 3.159041a401.631784 401.631784 0 0 0 39.023446 45.341527C264.171893 917.472187 284.154375 948.059135 285.232165 950.202328a12.58661 12.58661 0 0 0 9.489511 5.277456 99.354932 99.354932 0 0 0 49.553582-10.542524c11.607927 8.436497 23.203465 15.819981 34.811392 23.203464 13.713954 29.521547 42.194875 44.288514 43.247889 44.288515 3.159041 2.106027 7.433037 2.106027 11.607926 0 1.053014 0 7.433037-3.159041 14.766968-9.489511 31.639962 13.713954 54.843427 18.979022 61.173897 21.060272h6.33047c6.33047-2.106027 29.533935-7.433037 61.173898-21.060272 7.433037 6.33047 13.713954 8.436497 14.766967 9.489511 3.159041 2.106027 7.433037 2.106027 11.607927 0 1.053014-1.053014 29.533935-14.766968 43.247889-44.288515 11.607927-7.433037 23.203465-14.766968 34.811391-23.203464a99.354932 99.354932 0 0 0 49.553582 10.542524 11.075226 11.075226 0 0 0 9.5019-5.277456c1.053014-1.053014 22.150451-31.639962 13.713954-68.544993 13.713954-14.766968 26.374894-29.521547 39.023446-45.341528 25.309492 5.277457 47.459943-2.106027 48.525345-3.159041 4.224443-1.053014 6.33047-4.212054 8.436497-8.436497 1.053014-2.106027 12.66094-37.958044-5.277456-71.704033 10.542525-21.060272 18.99141-42.120545 27.427908-64.332939 26.374894-4.212054 45.353916-21.060272 46.406929-21.060272a13.540516 13.540516 0 0 0 4.224443-10.542525c0-1.053014-2.106027-35.852017-26.374894-59.055481 4.224443-23.203465 7.433037-48.512957 9.489511-72.769436 30.586949-13.713954 44.300903-43.2355 45.353916-44.288514-2.106027-2.180358-2.106027-6.404801-4.224443-10.616855zM491.944933 44.300903a18.99141 18.99141 0 0 1 37.970433 0v87.524014c-5.277457 0-11.607927-1.053014-16.872995-1.053013h-3.159041a90.744997 90.744997 0 0 0-16.872995 1.053013V44.300903zM886.428613 504.096204a12.388396 12.388396 0 0 0-9.489511 11.595538 774.497713 774.497713 0 0 1-10.542524 86.471001c-1.053014 5.277457 1.053014 9.489511 5.277456 12.648552 14.766968 11.595538 20.044424 29.521547 22.150451 39.023446-6.33047 4.212054-18.99141 11.595538-33.758378 11.595538a12.388396 12.388396 0 0 0-11.607926 9.489511 480.174212 480.174212 0 0 1-31.639963 75.928476c-2.106027 5.277457-2.106027 10.542525 2.106028 14.766968 10.542525 16.872995 9.489511 36.90503 7.433037 46.394541-7.433037 1.053014-21.060272 3.159041-34.811391-1.053013a13.044981 13.044981 0 0 0-14.804133 4.212054 478.972537 478.972537 0 0 1-47.459944 54.831039 12.784824 12.784824 0 0 0-3.15904 13.713954c6.33047 18.979022-1.053014 37.958044-5.277457 47.459943-8.436497 0-22.150451-3.159041-33.758378-11.595538-4.224443-3.159041-10.542525-3.159041-15.819981 0a382.070507 382.070507 0 0 1-43.247889 28.49331c-2.106027 1.053014-4.224443 4.212054-5.277456 6.33047-5.277457 15.807593-17.888843 26.350117-25.321881 30.562172-2.106027-2.106027-6.33047-4.212054-9.489511-7.433038-4.224443-3.159041-9.489511-4.212054-13.713954-2.106027-29.533935 12.648552-51.684386 20.032036-61.173897 22.150451-9.489511-2.106027-31.639962-9.489511-61.173897-22.150451a9.514288 9.514288 0 0 0-5.277457-1.053014 11.979579 11.979579 0 0 0-8.436497 3.159041 57.965303 57.965303 0 0 1-9.489511 7.433038c-7.433037-5.277457-20.044424-14.766968-25.309492-30.586949a10.802681 10.802681 0 0 0-5.277457-6.33047 382.070507 382.070507 0 0 1-43.247889-28.49331c-4.224443-3.159041-10.542525-3.159041-15.819981 0-11.607927 8.436497-26.374894 10.542525-33.758378 11.595538-4.224443-9.489511-11.607927-27.415519-5.277456-47.459943 2.106027-4.212054 0-9.489511-3.159041-13.713954C279.94232 853.151637 264.171893 834.172615 249.305818 815.168816a13.044981 13.044981 0 0 0-14.766968-4.224443 65.844322 65.844322 0 0 1-34.811391 1.053014c-2.106027-9.489511-4.224443-29.521547 6.33047-46.394542 4.224443-4.212054 5.277457-10.542525 2.106027-14.766967a480.174212 480.174212 0 0 1-31.590408-75.9037 15.200561 15.200561 0 0 0-11.607927-9.489511 73.58707 73.58707 0 0 1-33.758378-11.595538c2.106027-9.489511 7.433037-27.415519 22.150451-39.023446 4.224443-3.159041 6.33047-8.436497 5.277457-12.648552-5.277457-27.415519-9.489511-56.98662-10.542525-86.471001a12.388396 12.388396 0 0 0-9.489511-11.595538c-17.926008-5.277457-29.533935-20.032036-34.811391-27.415519C109.06918 468.29374 121.705344 454.530233 139.656129 450.30579a11.471654 11.471654 0 0 0 9.489511-11.595538c3.159041-22.150451 7.433037-44.288514 14.766967-64.332938 2.106027-5.277457 0-10.542525-4.224442-14.766968-14.766968-12.648552-18.99141-31.639962-20.044424-42.120545 8.436497-4.212054 26.374894-11.595538 44.300902-7.433037a13.738731 13.738731 0 0 0 13.726342-5.289845 295.103971 295.103971 0 0 1 41.141862-48.512957 12.784824 12.784824 0 0 0 3.159041-13.713954 65.807157 65.807157 0 0 1-1.053014-34.799003 66.500907 66.500907 0 0 1 43.235501 5.351787c4.224443 2.106027 9.489511 2.106027 12.66094 0 60.120884-35.852017 135.033512-55.896441 214.121029-55.896441h3.159041C593.207679 157.146798 668.033588 177.166445 728.216413 213.092792a13.453798 13.453798 0 0 0 12.660941 0c15.819981-8.436497 33.758378-6.33047 43.247889-5.277457 1.053014 7.433037 3.159041 21.060272-1.053014 34.799004a12.784824 12.784824 0 0 0 3.159041 13.713953 257.145927 257.145927 0 0 1 41.129473 48.438627 13.738731 13.738731 0 0 0 13.713954 5.277457 61.446442 61.446442 0 0 1 44.300903 7.433037c-1.053014 10.542525-5.277457 29.521547-20.044425 42.120545-4.224443 3.159041-5.277457 9.489511-4.224442 14.766967 7.433037 20.032036 11.607927 42.120545 14.766967 64.332938a15.200561 15.200561 0 0 0 9.489511 11.595539c17.926008 4.212054 30.586949 18.979022 35.864405 26.362505-5.265068 8.448886-16.860606 22.16284-34.799003 27.440297z" fill="" p-id="1559"></path><path d="M519.025966 890.676087c-12.462726 16.253575-33.176123 20.762951-42.529362 22.695541-5.265068-9.378015-13.466186-27.787171-6.64018-47.744877 2.056474-7.321542-1.23884-14.011275-8.547993-16.104914-2.663505-1.350335-5.661497-0.371652-7.668417 0.272545a12.983039 12.983039 0 0 0-8.399332 8.275448c-12.314065 40.596772 13.429021 75.470106 15.089066 77.154927 2.304242 3.716519 5.971207 4.719979 10.629243 5.413729 2.329018 0.346875 45.688403 0.681362 71.295217-33.151346a12.388396 12.388396 0 0 0-2.477679-18.025116c-8.684265-6.033149-16.030584-4.757144-20.750563 1.214063z" fill="#E76487" p-id="1560"></path><path d="M519.261346 309.598393c117.503932 0 199.155847 85.046336 198.486873 207.146362v15.262504C706.437614 774.782647 539.838471 829.291587 520.611681 834.383218h-3.989064c-18.582593-5.810158-185.825933-60.331486-197.161315-301.645044v-15.993419c-0.668973-121.406276 80.982942-206.427835 198.486874-207.146362z" fill="#EDD6E4" p-id="1561"></path><path d="M521.15677 838.706768h-5.215514l-0.631809-0.198215c-16.823441-5.265068-60.529701-21.989402-103.059062-63.54008A299.89828 299.89828 0 0 1 348.412982 682.612984c-19.499335-43.458492-30.710833-93.829708-33.324784-149.688984v-16.179245C314.406837 392.972295 397.805516 306.005759 517.886234 305.262455h1.350335c57.519321 0 107.419778 19.598442 144.31242 56.689298 38.06954 38.267754 58.844879 93.259842 58.510392 154.854944v15.411165c-2.613951 56.206151-13.788284 106.849912-33.225677 150.506617-15.844758 35.629026-37.264294 66.78584-63.639188 92.702364-48.550122 47.620993-98.016986 61.706598-103.492656 63.180817z m-3.877568-8.671877h2.737836c7.346319-2.019308 53.455927-16.030584 99.107164-60.814634 25.594425-25.111278 46.394541-55.400905 61.805706-90.038859 18.979022-42.640858 29.917975-92.19444 32.482373-147.285635v-15.151008c0.322098-59.266084-19.561277-112.053038-55.98316-148.660746-35.220209-35.418423-83.00225-54.137289-138.167775-54.137289h-1.325559C402.921923 314.677636 323.128267 398.039149 323.784852 516.719979v15.919088c2.564398 54.731932 13.528128 104.062523 32.569092 146.443224a291.238791 291.238791 0 0 0 61.941978 89.691984c40.683491 39.741973 82.320888 55.98316 98.970892 61.260616z" fill="#AA8DA0" p-id="1562"></path><path d="M520.611681 375.665707c63.837402 0 116.215539 52.241864 117.850807 115.918217 0 178.776936-108.856832 213.873261-113.762637 215.558083a4.955358 4.955358 0 0 1-3.270536 0.817634c-1.635268 0-2.477679-0.817634-3.270537-0.817634-4.955358-1.635268-113.762636-36.731593-113.762636-215.558083A115.992548 115.992548 0 0 1 520.611681 375.665707z" fill="#B26060" p-id="1563"></path><path d="M521.429315 712.865446a10.046989 10.046989 0 0 1-3.914733-0.817635h-0.161049l-0.755692-0.247767c-12.066297-4.001452-117.157057-43.904474-117.157057-220.203731 0-66.649568 54.36028-120.873575 121.170897-120.873576 66.005372 0 121.096567 54.162065 122.806165 120.737303v0.123884c0 175.159525-103.740424 215.681967-116.82257 220.104624a9.241743 9.241743 0 0 1-5.165961 1.176898z m-2.180358-10.629244a8.671877 8.671877 0 0 1 1.870648 0.582255 2.675893 2.675893 0 0 0 0.371652 0.148661h0.359263l0.594643-0.297322 0.644197-0.235379c11.372547-3.716519 110.343439-41.439183 110.368216-210.738997-1.610491-61.223451-52.241864-111.024801-112.895449-111.024801-61.347335 0-111.260181 49.776573-111.26018 110.962859 0.037165 167.565438 97.025914 206.204844 109.94701 210.602724z" fill="#430706" p-id="1564"></path><path d="M525.443155 413.425537c55.091195 0 100.346004 44.821215 101.696339 99.454039 0 153.380725-93.928815 183.496915-98.165646 184.896804a4.273996 4.273996 0 0 1-2.824554 0.706138c-1.412277 0-2.118416-0.706139-2.824555-0.706138-4.236831-1.399889-98.165646-31.516078-98.165646-184.896804 0-54.632824 44.486728-99.45404 100.284062-99.454039z" fill="#6C2A29" p-id="1565"></path></svg>